Patient4_TMGait_0pt4_03_left_42_EMG.mot
version=1
nRows=19
nColumns=33
inDegrees=no
endheader
time	1LAddLong	2LGlutMax	3LGlutMed	4LIliopsoas	5LSemiMemb	6LBicFemLong	7LRecFem	8LVastMed	9LVastLat	10LGasMed	11LTibAnt	12lTibPost	13LPeroneusLong	14LSol	15LExtDigLong	16LFlexDigLong	17RAddLong	18RGlutMax	19RGlutMed	20RIliopsoas	21RSemiMemb	22RBicFemLong	23RRecFem	24RVastMed	25RVastLat	26RGasMed	27RTibAnt	28RTibPost	29RPeroneusLong	30RSol	31RExtDigLong	32RFlexDigLong
56.58	0.005341	0.070648	-0.056	0.00885	0.007172	0.01297	-0.031891	-0.006561	-0.029602	0.025635	-0.19226	-0.001984	-0.1091	-0.02243	-0.092468	-0.015717	0.076752	-0.80185	-0.45517	0.082245	0.35675	-0.091858	-0.13534	0.1033	0.13794	-0.013428	0.11337	-0.007019	-0.003815	-0.042419	0.000153	-0.012817
56.581	-0.001373	0.060577	-0.077972	-0.001068	0.00946	-0.017242	-0.019989	0.06134	-0.029755	-0.017395	-0.001526	0.001221	0.013733	0.068359	0.02243	-0.008087	0.079651	-0.85968	-0.25314	0.047302	0.009766	-0.084534	-0.16449	-0.031586	0.19608	-0.007477	0.14297	-0.00351	-0.013733	-0.040741	-0.002899	-0.000305
56.582	-0.00351	0.046539	-0.093842	0.003815	0.008545	-0.015106	-0.005035	0.036469	-0.028229	-0.059204	0.087433	0.004883	0.07431	0.13229	0.12299	0.008087	0.043488	-0.82901	-0.025024	-0.029449	0.15839	-0.047913	-0.27878	0.08194	0.27908	-0.010834	0.15167	-0.002594	-0.023804	-0.049286	-0.001831	-0.004883
56.583	0.003052	0.075073	-0.080414	0.004883	0.011292	-0.006409	0.010223	-0.000916	-0.023041	-0.053711	0.042725	0.002594	0.091705	0.097809	0.04715	-0.00351	-0.06134	-0.80185	0.066833	-0.19043	0.077362	0.07019	-0.39978	0.15289	0.34546	-0.009766	0.1503	-0.000763	-0.059509	-0.06958	-0.001526	-0.005341
56.584	0.008087	0.072937	-0.10056	-0.002289	0.00824	-0.015259	0.011139	-0.009003	-0.013428	-0.043488	0.055847	0.00473	0.027924	0.068512	-0.18768	-0.000153	-0.075989	-0.75958	-0.1741	-0.20981	-0.079803	0.064087	-0.39764	0.24323	0.32776	-0.011444	0.029907	-0.001373	-0.16144	-0.085754	-0.000458	-0.015259
56.585	0.004883	0.077209	-0.10269	0.005798	0.001373	-0.003662	0.022888	-0.006866	-0.022278	-0.061798	0.060883	-0.001373	-0.030518	-0.003204	-0.41931	-0.01709	-0.064392	-0.69809	-0.39993	-0.10193	0.27115	-0.11169	-0.40848	0.28732	0.37018	-0.002747	-0.039215	0.000763	-0.18799	-0.071716	-0.006256	-0.013428
56.586	0.001678	0.092926	-0.10391	-0.009155	0.000458	0.013428	0.02121	0	-0.009003	-0.054932	0.10407	0.008698	-0.018463	-0.015869	-0.26627	-0.020599	-0.048523	-0.64575	-0.46829	0.041046	0.48492	-0.20874	-0.46661	0.24872	0.36072	-0.007324	0.019073	0.00061	-0.16525	-0.070038	-0.007172	-0.013733
56.587	0.00351	0.10178	-0.10803	0.020142	-0.012512	0.036926	0.033264	0.006409	-0.013275	-0.053558	0.14832	0.003204	-0.012207	0.006714	0.062714	-0.00885	-0.030518	-0.63065	-0.10284	0.070801	0.46875	-0.22324	-0.40573	0.10849	0.37109	0	0.14023	0.000916	-0.092621	-0.10849	-0.003357	-0.009613
56.588	0.000305	0.068054	-0.11337	0.018158	0.000763	0.016174	0.025177	0.006256	-0.016632	-0.089722	0.18021	0.006256	-0.036774	-0.1268	0.10681	0.003815	-0.007935	-0.55801	-0.046539	0.064697	0.37796	-0.22324	-0.32501	-0.057068	0.31403	-0.006409	0.12833	0.000305	-0.063934	-0.11902	-0.003052	-0.011139
56.589	-0.006714	0.080872	-0.1033	0.005035	-0.003967	-0.015564	0.025177	0.005341	-0.018005	-0.13931	-0.068359	-0.004578	0.030823	-0.15121	-0.044708	-0.010223	-0.02182	-0.50369	-0.19959	0.06897	0.22171	-0.11978	-0.28503	-0.12039	0.10376	-0.001678	0.02533	-0.010376	-0.040436	-0.13641	-0.000458	-0.023041
56.59	-0.003815	0.066681	-0.12177	0.012817	0.007324	-0.039978	0.049438	0.002594	-0.021973	-0.11963	-0.19745	0.004272	0.072021	-0.10315	-0.024872	-0.001526	0.007172	-0.54092	-0.17914	0.095825	0.18631	-0.056152	-0.2832	-0.18127	-0.15595	-0.003052	-0.11765	-0.001984	-0.001831	-0.10666	0.002289	-0.015564
56.591	0.007324	0.075836	-0.097351	-0.001678	0.001068	-0.041351	0.055389	0.002441	-0.015564	-0.066071	-0.084991	0.002747	0.035706	-0.064087	0.15488	0.005188	0.021515	-0.52948	-0.089264	0.034332	0.13367	-0.015869	-0.17364	-0.20187	-0.24994	-0.001831	-0.4602	-0.005341	0.043488	-0.095825	-0.000916	-0.012054
56.592	0.000763	0.10132	-0.093079	-0.00351	-0.011444	-0.055237	0.069427	0.001984	-0.004272	0.021973	0.10864	0.00473	0.038757	-0.073547	0.289	0.002899	0.037994	-0.53863	-0.005646	0.058594	0.050049	-0.042725	-0.10269	-0.093994	-0.11169	-0.002594	-0.36774	-0.002441	-0.014954	-0.079651	0.001068	-0.025024
56.593	-0.000305	0.10635	-0.065613	-0.000153	-0.002594	-0.074921	0.037842	0.008392	-0.006409	0.078125	0.27863	0.004578	0.016785	-0.079956	0.19348	0.015717	0.054321	-0.52872	-0.48386	0.063019	-0.005188	-0.061646	-0.052338	-0.10757	-0.058594	0.005035	-0.16708	0.00824	0.038147	-0.10468	-0.002136	-0.015106
56.594	0.001373	0.10056	-0.075073	-0.015869	-0.003052	-0.072021	0.046234	0.002136	-0.00351	0.10819	0.1886	-0.006561	0.020599	-0.079651	0.14343	0.015411	0.03952	-0.57205	-0.48248	-0.020447	0.13138	-0.071411	-0.039215	-0.082092	-0.022736	0.000916	-0.084839	0.000153	-0.003357	-0.091095	-0.002594	-0.014954
56.595	-0.002136	0.13229	-0.063171	-0.001373	-0.005341	-0.032806	0.058899	-0.00412	-0.021057	0.1091	-0.018158	-0.005951	0.010376	-0.043335	0.1355	0.004883	0.069733	-0.49057	-0.47592	-0.080566	0.3418	-0.095367	-0.084381	-0.17838	0.02243	-0.001984	0.023346	0.002899	-0.048065	-0.076294	-0.001526	-0.013428
56.596	0.006866	0.11536	-0.064697	0.014038	-0.003357	-0.019684	0.05661	0.003357	-0.015411	0.11887	-0.25604	0.000763	-0.036469	-0.10666	0.26962	-0.007019	0.17364	-0.38635	-0.45425	-0.070038	0.22888	-0.17746	-0.22156	-0.22812	0.053711	0.005035	0.1532	-0.003662	0.035858	-0.059204	-0.004883	-0.010223
56.597	-0.003815	0.12665	-0.067749	0.021667	0.003967	0.010681	0.067749	-0.000153	-0.021362	0.076752	-0.14618	0.006561	-0.010529	-0.070496	0.30731	-0.007019	0.21942	-0.25269	-0.50217	-0.023193	0.27069	-0.24445	-0.33554	-0.20889	0.076904	-0.006714	0.27618	0.001526	0.02243	-0.010986	-0.002289	0.000153
56.598	0.003662	0.11673	-0.07309	0.01297	-0.006409	0.041199	0.04364	0.007324	-0.02655	0.042572	0.047607	0.00061	0.006866	0.012512	-0.13443	0.003204	0.20248	-0.1236	-0.38055	-0.018311	0.27451	-0.20966	-0.24582	-0.233	0.049591	-0.004425	0.29816	-0.003052	-0.027008	0.034485	-0.001068	-0.01297
